<svg xmlns="http://www.w3.org/2000/svg" xml:space="preserve" width="1500" height="1500" data-id="lg_8ELaZpOS1tOWjC4TYI" data-version="1" viewBox="0 0 1500 1500"><path fill="#fff" stroke="transparent" d="M0 0h1500v1500H0z"/><g data-padding="20"><g transform="translate(-571.429 -586.224)scale(1.72194)"><rect width="560" height="96.05" x="86.907" y="327.975" fill="none" rx="0" ry="0" transform="translate(400.5 400)"/><path fill="#1db954" d="m523.787 802.29-11.05 9.18q-.85.85-2.64.85h-12.66q-3.91 0-3.91-3.91v-55.08q0-2.12 1.19-3.14l10.96-9.27q.94-.76 2.72-.76h13.69q1.61 0 2.68.63 1.06.64 1.99 2.34l5.78 10.63.77-1.36q.68-1.28 1.53-2.04l10.96-9.18q.68-.51 1.41-.77.72-.25 1.74-.25h13.77q3.91 0 3.91 3.91v55.08q0 2.12-1.19 3.14l-11.05 9.18q-.85.85-2.64.85h-13.09q-2.12 0-3.01-.93-.9-.94-.9-2.98v-22.44l-5.01 4.17q-1.45 1.19-3.66 1.19h-1.1v7.82q0 2.12-1.19 3.14m-15.39-.08h12.67q3.06 0 3.06-3.06v-29.92l5.01 9.26q1.45 2.72 4.51 2.72h3.4q3.06 0 4.5-2.72l5.02-9.26v29.92q0 3.06 3.06 3.06h13.09q3.06 0 3.06-3.06v-55.08q0-3.06-3.06-3.06h-13.77q-2.55 0-3.91 2.55l-7.57 13.85q-.42.77-.72 1.11t-.81.34h-.76q-.51 0-.81-.34t-.72-1.11l-7.65-13.85q-1.36-2.55-3.91-2.55h-13.69q-3.06 0-3.06 3.06v55.08q0 3.06 3.06 3.06m26.86-32.73q1.53 0 2.21-.68t2.13-2.89l10.37-15.81q.51-.85 1.15-1.15.63-.29 1.31-.29h1.45q2.29 0 2.29 2.63v43.27h-.85v-43.27q0-.68-.25-1.23-.26-.55-1.19-.55h-1.28q-.59 0-1.02.17-.42.17-.93 1.02l-10.37 15.64q-1.53 2.29-2.34 3.14t-2.68.85-2.67-.85q-.81-.85-2.34-3.14l-10.37-15.64q-.51-.85-.98-1.02t-1.06-.17h-1.28q-.85 0-1.1.55-.26.55-.26 1.23v43.27h-.85v-43.27q0-2.63 2.21-2.63h1.45q.68 0 1.36.29.68.3 1.19 1.15l10.37 15.81q1.44 2.21 2.12 2.89t2.21.68m77.69 42.84h-36.21q-3.91 0-3.91-3.91V798.3q0-2.13 1.19-3.15l10.29-8.67v-18.95h-7.57q-3.91 0-3.91-3.91v-10.29q0-2.12 1.19-3.14l10.97-9.27q.93-.76 2.72-.76h36.21q3.91 0 3.91 3.91v10.28q0 2.13-1.19 3.15l-10.12 8.5v19.12h7.4q3.91 0 3.91 3.91v10.12q0 2.12-1.19 3.14l-11.05 9.18q-.85.85-2.64.85m-25.24-10.11h36.21q3.06 0 3.06-3.06v-10.12q0-3.06-3.06-3.06h-8.25v-28.56h8.25q3.06 0 3.06-3.06v-10.28q0-3.06-3.06-3.06h-36.21q-3.06 0-3.06 3.06v10.28q0 3.06 3.06 3.06h8.41v28.56h-8.41q-3.06 0-3.06 3.06v10.12q0 3.06 3.06 3.06m4.59-52.7v-.85h27.03v.85h-13.01v44.2h13.01v.85h-27.03v-.85h13.17v-44.2Zm72.16 52.78-11.05 9.18q-.85.85-2.63.85h-12.75q-3.91 0-3.91-3.91v-55.08q0-2.12 1.19-3.14l10.96-9.27q.94-.76 2.72-.76h8.84q3.4 0 5.7 2.55l5.86 6.8 10.29-8.59q.93-.76 2.72-.76h12.75q3.91 0 3.91 3.91v55.08q0 2.12-1.19 3.14l-11.05 9.18q-.85.85-2.64.85h-12.75q-3.91 0-3.91-3.91V798.3l-1.87-2.3v3.15q0 2.12-1.19 3.14m-15.47-.08h12.75q3.06 0 3.06-3.06V771.1l14.54 17.59v10.46q0 3.06 3.06 3.06h12.75q3.06 0 3.06-3.06v-55.08q0-3.06-3.06-3.06h-12.75q-3.06 0-3.06 3.06v18.1l-16.49-18.87q-1.96-2.29-5.02-2.29h-8.84q-3.06 0-3.06 3.06v55.08q0 3.06 3.06 3.06m8.16-52.87 31.28 35.19v-35.87h.85v45.9h-.85v-8.76l-32.13-36.04q-.25-.25-.42-.25t-.17.25v44.8h-.85v-44.97q0-1.02 1.02-1.02.51 0 1.27.77m109.4 49.3-11.05 9.18q-5.27 4.5-16.32 4.5h-28.65q-3.91 0-3.91-3.91v-55.08q0-2.12 1.19-3.14l10.97-9.27q.93-.76 2.72-.76h28.64q11.22 0 16.49 4.46t5.27 13.73v26.52q0 9.18-5.35 13.77m-45.05 3.57h28.64q10.71 0 15.81-4.25t5.1-13.09v-26.52q0-8.84-5.1-13.09t-15.81-4.25h-28.64q-3.06 0-3.06 3.06v55.08q0 3.06 3.06 3.06m26.77-7.65h-20.57v-45.9h20.57q5.78 0 8.72 1.57 2.93 1.57 3.91 4.25.97 2.68.97 5.99V783q0 3.23-.93 5.86-.94 2.64-3.87 4.17t-8.8 1.53m0-45.05h-19.72v44.2h19.72q5.44 0 8.16-1.41 2.72-1.4 3.66-3.82.93-2.42.93-5.48v-22.53q0-3.14-.93-5.61-.94-2.46-3.7-3.91-2.76-1.44-8.12-1.44m-10.54 36.63v-28.9h10.12q3.99 0 3.99 4.08v20.66q0 4.16-3.99 4.16Zm2.3-.85v-14.7q0-2.38-1.45-2.98v17.68Zm55.59 27.03h-13.18q-3.91 0-3.91-3.91v-55.08q0-2.12 1.19-3.14l10.97-9.27q.93-.76 2.72-.76h26.01q8.16 0 12.71 2.21 4.54 2.21 6.37 6.12t1.83 9.09v10.88q0 4.08-1.15 7.44t-3.95 5.74l-11.05 9.18q-2.13 1.78-5.48 2.93-3.36 1.15-8.21 1.32v4.08q0 2.12-1.19 3.14l-11.05 9.18q-.85.85-2.63.85m-2.21-10.11h13.17q3.06 0 3.06-3.06v-14.11h9.78q7.73 0 12.11-2.09 4.38-2.08 6.16-5.82 1.79-3.74 1.79-8.67v-10.88q0-4.93-1.79-8.67-1.78-3.74-6.16-5.82t-12.11-2.08h-26.01q-3.06 0-3.06 3.06v55.08q0 3.06 3.06 3.06m24.82-24.4h-17.51v16.75h-.85v-45.9h18.36q5.35 0 8.12 1.53 2.76 1.53 3.69 4.12.94 2.59.94 5.91v6.29q0 3.31-.94 5.86-.93 2.55-3.69 4-2.77 1.44-8.12 1.44m-17.51-.85h17.51q5.01 0 7.56-1.32 2.55-1.31 3.45-3.69.89-2.38.89-5.44v-6.29q0-3.06-.89-5.49-.9-2.42-3.45-3.82t-7.56-1.4h-17.51Zm8.75-7.22V756.9h7.65q2.47 0 3.23 1.23.77 1.24.77 2.94v4.5q0 1.62-.77 2.89-.76 1.28-3.23 1.28Zm82.7 42.58h-43.27q-3.91 0-3.91-3.91v-55.08q0-2.12 1.19-3.14l10.97-9.27q.93-.76 2.72-.76h13.17q3.91 0 3.91 3.91v34.59l.17-.17 10.97-9.26q.93-.77 2.72-.77h12.32q3.91 0 3.91 3.91v26.78q0 2.12-1.19 3.14l-11.05 9.18q-.85.85-2.63.85m-32.3-10.11h43.26q3.06 0 3.06-3.06v-26.78q0-3.06-3.06-3.06h-12.32q-3.06 0-3.06 3.06v13.77h-11.65v-42.07q0-3.06-3.06-3.06h-13.17q-3.06 0-3.06 3.06v55.08q0 3.06 3.06 3.06m36.63-25.25h.85v17.6h-31.28v-45.9h.85v45.05h29.58Zm59.43 35.36h-39.44q-3.91 0-3.91-3.91v-55.08q0-2.12 1.19-3.14l10.96-9.27q.94-.76 2.72-.76h39.44q3.91 0 3.91 3.91v9.94q0 2.13-1.19 3.15l-7.31 6.03q1.62.85 1.62 3.49v9.09q0 2.13-1.19 3.15l-7.57 6.37h11.73q3.91 0 3.91 3.91v9.95q0 2.12-1.19 3.14l-11.05 9.18q-.85.85-2.63.85m-28.48-10.11h39.44q3.06 0 3.06-3.06v-9.95q0-3.06-3.06-3.06h-23.46v-7.31h16.58q3.06 0 3.06-3.06v-9.09q0-3.06-3.06-3.06h-16.58v-6.55h23.46q3.06 0 3.06-3.06v-9.94q0-3.06-3.06-3.06h-39.44q-3.06 0-3.06 3.06v55.08q0 3.06 3.06 3.06m7.06-8.5h27.79v.85h-28.64v-45.9h28.64v.85h-27.79v21.33h20.91v.85h-20.91Zm71.9 8.58-11.05 9.18q-.85.85-2.64.85h-12.92q-3.91 0-3.91-3.91v-9.09q0-2.81.3-4.55t1.02-3.19q.72-1.44 2.08-3.23l6.55-8.75-6.55-8.76q-1.36-1.87-2.08-3.27t-1.02-3.19q-.3-1.78-.3-4.5v-6.55q0-2.12 1.19-3.14l10.97-9.27q.93-.76 2.72-.76h13.09q3.91 0 3.91 3.91v6.2q0 .68.08 1.4.09.73.51 1.32l.94 1.36v-1.02q0-2.12 1.19-3.14l10.96-9.27q.94-.76 2.72-.76h12.92q3.91 0 3.91 3.91v6.54q0 2.72-.29 4.51-.3 1.78-1.02 3.18-.73 1.41-2.09 3.28l-6.54 8.84 6.54 8.67q1.36 1.78 2.09 3.23.72 1.44 1.02 3.18.29 1.75.29 4.55v9.1q0 2.12-1.19 3.14l-11.05 9.18q-.85.85-2.63.85h-12.92q-3.91 0-3.91-3.91v-8.75q0-.68-.09-1.36-.08-.68-.51-1.36l-1.1-1.53v3.74q0 2.12-1.19 3.14m.34-3.14v-8.76q0-.76.08-1.57.09-.81.68-1.66l3.83-5.35q.51-.77.93-1.11.43-.34 1.11-.34h1.19q.68 0 1.1.34.43.34.94 1.11l3.74 5.35q.59.85.68 1.66.08.81.08 1.57v8.76q0 3.06 3.06 3.06h12.92q3.06 0 3.06-3.06v-9.1q0-2.63-.25-4.29-.26-1.66-.94-3.06t-2.04-3.1l-6.88-9.18 6.88-9.35q1.28-1.79 2-3.15t.98-3.02q.25-1.65.25-4.29v-6.54q0-3.06-3.06-3.06h-12.92q-3.06 0-3.06 3.06v5.86q0 .85-.08 1.79-.09.93-.68 1.78l-3.83 5.36q-.51.68-.93 1.06-.43.38-1.11.38h-1.02q-.68 0-1.14-.38-.47-.38-.9-1.06l-3.74-5.36q-.59-.85-.68-1.78-.08-.94-.08-1.79v-5.86q0-3.06-3.06-3.06h-13.09q-3.06 0-3.06 3.06v6.54q0 2.64.25 4.29.26 1.66.98 3.02t2 3.15l6.88 9.26-6.88 9.27q-1.28 1.7-1.96 3.1t-.97 3.06q-.3 1.66-.3 4.29v9.1q0 3.06 3.06 3.06h12.92q3.06 0 3.06-3.06m-9.1-8.42v3.83h-.85v-4.25q0-1.7.17-3.23t1.11-2.89l10.2-13.94-10.2-13.77q-.94-1.36-1.11-3.02t-.17-3.53v-1.27h.85v1.27q0 1.79.17 3.4.17 1.62 1.02 2.81l10.2 13.77h10.12l9.86-13.77q.85-1.19 1.02-2.81.17-1.61.17-3.4v-1.27h.85v1.27q0 1.87-.17 3.53t-1.11 3.02l-10.03 13.94 10.03 13.77q.94 1.36 1.11 3.01.17 1.66.17 3.53v3.83h-.85v-3.83q0-1.78-.13-3.4-.13-1.61-1.06-2.8l-9.95-13.77h-10.2l-10.03 13.77q-.85 1.1-1.02 2.76t-.17 3.44"/></g><path fill="transparent" stroke="transparent" stroke-width="1.786" d="M250 664.286h1000v171.428H250z"/></g></svg>